<svg width="481" height="27" viewBox="0 0 481 27" fill="none" xmlns="http://www.w3.org/2000/svg">
<path d="M1 13.5H213.5" stroke="#34384C" stroke-linecap="round"/>
<path d="M236.862 17.866C234.18 17.866 232.11 15.742 232.11 12.628V12.484C232.11 9.424 233.838 7.228 236.826 7.228C239.796 7.228 241.488 9.568 241.488 12.448V12.592C241.488 15.706 239.724 17.866 236.862 17.866ZM236.862 19.162C240.606 19.162 243.108 16.246 243.108 12.61V12.466C243.108 8.848 240.606 5.968 236.826 5.968C233.046 5.968 230.49 8.848 230.49 12.502V12.646C230.49 16.246 233.064 19.162 236.862 19.162ZM245.602 19H247.096V13.834C247.096 11.512 248.302 10.918 250.192 10.828V9.424C248.5 9.478 247.69 10.216 247.096 11.278V9.586H245.602V19Z" fill="#A5ADCF"/>
<path d="M267.5 13.5H480" stroke="#34384C" stroke-linecap="round"/>
</svg>
