<svg width="24" height="24" viewBox="0 0 24 24" fill="none" xmlns="http://www.w3.org/2000/svg">
<g clip-path="url(#clip0_1994_12803)">
<path d="M9.34069 22.6702L9.34034 22.6702C3.44426 21.2005 -0.139637 15.2271 1.32999 9.34026L1.33007 9.33992C2.79979 3.44387 8.76421 -0.140011 14.6606 1.32983L14.6616 1.33008C20.5472 2.79071 24.1409 8.7635 22.671 14.66C21.2013 20.5559 15.2276 24.1399 9.34069 22.6702Z" fill="url(#paint0_linear_1994_12803)" stroke="white" stroke-width="2"/>
<path d="M17.7136 10.5045C17.9479 8.91074 16.7386 8.04824 15.0698 7.47637L15.6136 5.31074L14.3011 4.98262L13.7761 7.09199C13.4292 7.00762 13.0729 6.92324 12.7167 6.84824L13.2417 4.72949L11.9292 4.40137L11.3948 6.55762C11.1042 6.49199 10.8229 6.42637 10.5511 6.36074V6.35137L8.73232 5.90137L8.38545 7.30762C8.38545 7.30762 9.36045 7.53262 9.3417 7.54199C9.87607 7.67324 9.96982 8.02949 9.95107 8.31074L9.33232 10.7764C9.36982 10.7857 9.4167 10.7951 9.47295 10.8232C9.42607 10.8139 9.3792 10.8045 9.33232 10.7857L8.46982 14.2357C8.4042 14.3951 8.23545 14.6389 7.86982 14.5451C7.8792 14.5639 6.91357 14.3107 6.91357 14.3107L6.25732 15.8201L7.97295 16.2514C8.2917 16.3357 8.60107 16.4107 8.91045 16.4951L8.3667 18.6795L9.6792 19.0076L10.2229 16.842C10.5792 16.9357 10.9354 17.0295 11.2729 17.1139L10.7386 19.2701L12.0511 19.5982L12.5948 17.4139C14.8448 17.8357 16.5323 17.667 17.2354 15.6326C17.8073 14.0014 17.2073 13.0545 16.0261 12.4357C16.8979 12.2389 17.5448 11.667 17.7136 10.5045ZM14.7042 14.7232C14.3011 16.3545 11.5448 15.4732 10.6542 15.2482L11.3761 12.3514C12.2667 12.5764 15.1354 13.017 14.7042 14.7232ZM15.1167 10.4764C14.7417 11.967 12.4542 11.2076 11.7136 11.0201L12.3698 8.39512C13.1104 8.58262 15.5011 8.92949 15.1167 10.4764Z" fill="white"/>
</g>
<defs>
<linearGradient id="paint0_linear_1994_12803" x1="11.9938" y1="-0.00576" x2="11.9938" y2="23.9976" gradientUnits="userSpaceOnUse">
<stop stop-color="#F9AA4B"/>
<stop offset="1" stop-color="#F7931A"/>
</linearGradient>
<clipPath id="clip0_1994_12803">
<rect width="24" height="24" fill="white"/>
</clipPath>
</defs>
</svg>
