<svg width="24" height="24" viewBox="0 0 24 24" fill="none" xmlns="http://www.w3.org/2000/svg">
<g clip-path="url(#clip0_1994_12797)">
<circle cx="12" cy="12" r="11" fill="#0E0637" stroke="white" stroke-width="2"/>
<path d="M16.9491 5H18.9726L14.7616 10.0347C13.2367 11.857 10.7643 11.857 9.23821 10.0347L5.02563 5H7.05071L10.2499 8.82458C10.7161 9.37933 11.3442 9.69031 11.9987 9.69031C12.6532 9.69031 13.2813 9.37933 13.7475 8.82458L16.9491 5Z" fill="white"/>
<path d="M7.0248 18.9999H5L9.23828 13.9341C10.7632 12.1118 13.2357 12.1118 14.7617 13.9341L19 18.9999H16.9766L13.75 15.1443C13.2839 14.5895 12.6557 14.2785 12.0012 14.2785C11.3468 14.2785 10.7186 14.5895 10.2525 15.1443L7.0248 18.9999Z" fill="white"/>
</g>
<defs>
<clipPath id="clip0_1994_12797">
<rect width="24" height="24" fill="white"/>
</clipPath>
</defs>
</svg>
