<svg width="24" height="24" viewBox="0 0 24 24" fill="none" xmlns="http://www.w3.org/2000/svg">
<g clip-path="url(#clip0_1994_12806)">
<circle cx="12" cy="12" r="11" fill="#5235E8" stroke="white" stroke-width="2"/>
<path d="M12.266 3.02556V3.03408C12.2745 3.07668 12.2745 3.1278 12.2745 3.17892V9.32172C12.266 9.3558 12.2405 9.36432 12.2149 9.38136C12.036 9.46655 11.8656 9.54323 11.6867 9.61991C11.4396 9.73067 11.184 9.84995 10.9369 9.9607L10.0423 10.3697C9.79526 10.4804 9.54819 10.5912 9.30963 10.7019C9.01996 10.8382 8.72176 10.966 8.43209 11.1024C8.18501 11.2131 7.93794 11.3324 7.68234 11.4432C7.47787 11.5369 7.27339 11.6221 7.07744 11.7158C7.0604 11.7243 7.04336 11.7328 7.02632 11.7328C7.0178 11.7328 7.0178 11.7328 7.00928 11.7243L7.23931 11.3409C7.68234 10.6082 8.11686 9.88403 8.55989 9.15132C9.02848 8.3675 9.50559 7.58367 9.97418 6.79985C10.4087 6.07566 10.8517 5.35147 11.2862 4.62729C11.6015 4.09906 11.9252 3.57083 12.2405 3.0426C12.249 3.02556 12.2575 3.01704 12.2575 3H12.266C12.2575 3.00852 12.266 3.01704 12.266 3.02556Z" fill="#F3F3F3"/>
<path d="M17.4965 11.7245L17.505 11.733L16.2526 12.4742L12.3164 14.8002C12.2994 14.8087 12.2824 14.8172 12.2739 14.8257C12.2483 14.8257 12.2483 14.8002 12.2483 14.7916V14.715V9.4497C12.2483 9.42414 12.2483 9.39006 12.2568 9.3645C12.2653 9.33042 12.2909 9.33894 12.3164 9.34746C12.4272 9.39858 12.5465 9.4497 12.6572 9.50082C12.9895 9.65418 13.3218 9.80753 13.6541 9.95237C13.9437 10.0802 14.2249 10.2165 14.5146 10.3443C14.8042 10.4721 15.0939 10.6084 15.3836 10.7362C15.6307 10.847 15.8863 10.9662 16.1333 11.077C16.3804 11.1877 16.636 11.307 16.8831 11.4178C17.079 11.503 17.275 11.5967 17.471 11.6819C17.471 11.7075 17.4795 11.716 17.4965 11.7245Z" fill="#8A8DA7"/>
<path d="M12.2653 20.1162C12.2653 20.1248 12.2568 20.1333 12.2568 20.1418H12.2482C12.2482 20.1248 12.2312 20.1162 12.2227 20.0992C11.6945 19.358 11.1662 18.6082 10.638 17.867C10.1012 17.1087 9.55598 16.342 9.01923 15.5837C8.49952 14.851 7.97129 14.1098 7.45158 13.377C7.31526 13.1811 7.17894 12.9937 7.04262 12.7977C7.0341 12.7807 7.02558 12.7721 7.00854 12.7466C7.0341 12.7466 7.05114 12.7636 7.05966 12.7721C7.80089 13.2067 8.5336 13.6412 9.27482 14.0757C10.1268 14.5783 10.9703 15.081 11.8223 15.5837L12.2568 15.8393C12.2738 15.8563 12.2738 15.8734 12.2738 15.8904V19.997C12.2738 20.0396 12.2738 20.0822 12.2653 20.1162Z" fill="#F3F3F3"/>
<path d="M7 11.7415V11.7329C7.27263 11.6137 7.53675 11.4859 7.80938 11.3666C8.1587 11.2047 8.50801 11.0514 8.85732 10.8895C9.12144 10.7702 9.39407 10.6424 9.65819 10.5231C10.0501 10.3442 10.4335 10.1738 10.8254 9.99489C11.0895 9.87562 11.3536 9.75634 11.6263 9.62854C11.8137 9.54334 12.0097 9.45814 12.1971 9.37295C12.2141 9.36443 12.2397 9.35591 12.2482 9.33887C12.2567 9.33887 12.2567 9.34739 12.2482 9.35591V14.766C12.2482 14.7916 12.2397 14.8171 12.2567 14.8342C12.2397 14.8597 12.2227 14.8342 12.2141 14.8256C12.1375 14.783 12.0608 14.7404 11.9841 14.6893C10.3398 13.7181 8.68693 12.7383 7.0426 11.767C7.03408 11.7585 7.01704 11.75 7 11.7415Z" fill="#C5C8D9"/>
<path d="M17.4795 12.7466H17.488C17.488 12.7636 17.471 12.7807 17.4625 12.7977C15.8948 15.0043 14.3272 17.2195 12.7595 19.4261C12.5976 19.6562 12.4272 19.8862 12.2654 20.1162C12.2568 20.1077 12.2568 20.0992 12.2568 20.0907V20.0396V15.9074V15.8308C12.6147 15.6178 12.964 15.4133 13.3218 15.2003C14.702 14.3824 16.0822 13.573 17.4539 12.7551C17.4625 12.7636 17.471 12.7551 17.4795 12.7466Z" fill="#C5C8D9"/>
<path d="M12.2568 9.3559V9.33886V9.28774V3.10234C12.2568 3.07678 12.2483 3.05974 12.2653 3.03418C13.9948 5.90536 15.7244 8.76803 17.4454 11.6392C17.4624 11.6648 17.488 11.6989 17.4965 11.7329C17.3772 11.6903 17.2664 11.6307 17.1557 11.5796C17.0194 11.5199 16.8745 11.4518 16.7382 11.3921C16.653 11.3495 16.5593 11.3155 16.4741 11.2729C16.3293 11.2047 16.1844 11.1451 16.0396 11.0769C15.9544 11.0428 15.8692 11.0002 15.784 10.9576L15.2217 10.702C15.128 10.6594 15.0343 10.6168 14.932 10.5742L14.5231 10.3953C14.4379 10.3612 14.3527 10.3186 14.2675 10.276L13.7052 10.0204C13.6114 9.97785 13.5177 9.93525 13.4155 9.89265L13.0065 9.71373C12.9128 9.67113 12.8276 9.62853 12.7339 9.58593C12.572 9.50925 12.4101 9.43258 12.2397 9.36442C12.2653 9.3559 12.2568 9.3559 12.2568 9.3559Z" fill="#C5C8D9"/>
</g>
<defs>
<clipPath id="clip0_1994_12806">
<rect width="24" height="24" fill="white"/>
</clipPath>
</defs>
</svg>
