<svg width="24" height="24" viewBox="0 0 24 24" fill="none" xmlns="http://www.w3.org/2000/svg">
<circle cx="12" cy="12" r="11" fill="#DAF727" stroke="white" stroke-width="2"/>
<path d="M8.475 11.0005V12.6905H6.885V13.6005H8.475V15.2905H9.465V13.6005H11.065V12.6905H9.465V11.0005H8.475ZM16.7603 12.9405C16.4703 12.6605 16.1103 12.4705 15.6803 12.3805C16.0903 12.2905 16.4203 12.1105 16.6603 11.8405C16.9003 11.5705 17.0303 11.2205 17.0303 10.8005C17.0303 10.4405 16.9303 10.1105 16.7303 9.83049C16.5303 9.55049 16.2503 9.33049 15.8803 9.17049C15.5103 9.02049 15.0703 8.94049 14.5703 8.94049C13.8303 8.94049 13.2503 9.13049 12.8103 9.50049C12.3703 9.88049 12.1403 10.3905 12.1403 11.0305H13.2303C13.2303 10.6705 13.3603 10.3905 13.6203 10.1805C13.8803 9.97049 14.2103 9.86049 14.6103 9.86049C14.9903 9.86049 15.3003 9.96049 15.5403 10.1405C15.7803 10.3205 15.9003 10.5705 15.9003 10.8805C15.9003 11.2205 15.7703 11.4805 15.5303 11.6805C15.2903 11.8805 14.9403 11.9805 14.4803 11.9805H13.9103V12.9005H14.5503C15.0303 12.9005 15.4103 13.0005 15.6703 13.1905C15.9303 13.3805 16.0703 13.6405 16.0703 13.9705C16.0703 14.3305 15.9303 14.6105 15.6603 14.8205C15.3903 15.0405 15.0503 15.1405 14.6403 15.1405C14.1703 15.1405 13.7903 15.0205 13.5103 14.7705C13.2203 14.5305 13.0703 14.1905 13.0703 13.7605H11.9603C11.9603 14.4805 12.1903 15.0405 12.6603 15.4505C13.1303 15.8605 13.7703 16.0605 14.5703 16.0605C15.0903 16.0605 15.5503 15.9805 15.9503 15.8105C16.3503 15.6505 16.6503 15.4105 16.8703 15.1105C17.0903 14.8105 17.2003 14.4505 17.2003 14.0505C17.2003 13.5905 17.0503 13.2205 16.7603 12.9405Z" fill="black"/>
</svg>
