<svg width="24" height="25" viewBox="0 0 24 25" fill="none" xmlns="http://www.w3.org/2000/svg">
<g id="Google svg">
<path id="Vector" d="M22.56 12.75C22.56 11.97 22.49 11.22 22.36 10.5H12V14.755H17.92C17.665 16.13 16.89 17.295 15.725 18.075V20.835H19.28C21.36 18.92 22.56 16.1 22.56 12.75Z" fill="#4285F4"/>
<path id="Vector_2" d="M12 23.4998C14.97 23.4998 17.46 22.5148 19.28 20.8348L15.725 18.0748C14.74 18.7348 13.48 19.1248 12 19.1248C9.135 19.1248 6.71 17.1898 5.845 14.5898H2.17V17.4398C3.98 21.0348 7.7 23.4998 12 23.4998Z" fill="#34A853"/>
<path id="Vector_3" d="M5.845 14.5901C5.625 13.9301 5.5 13.2251 5.5 12.5001C5.5 11.7751 5.625 11.0701 5.845 10.4101V7.56006H2.17C1.4 9.09292 0.999321 10.7847 1 12.5001C1 14.2751 1.425 15.9551 2.17 17.4401L5.845 14.5901Z" fill="#FBBC05"/>
<path id="Vector_4" d="M12 5.875C13.615 5.875 15.065 6.43 16.205 7.52L19.36 4.365C17.455 2.59 14.965 1.5 12 1.5C7.7 1.5 3.98 3.965 2.17 7.56L5.845 10.41C6.71 7.81 9.135 5.875 12 5.875Z" fill="#EA4335"/>
</g>
</svg>
