<svg width="139" height="47" viewBox="0 0 139 47" fill="none" xmlns="http://www.w3.org/2000/svg">
<path d="M33.6732 44.6839C30.0804 46.4092 26.1079 47.1925 22.1292 46.96C18.1505 46.7275 14.2962 45.4869 10.9289 43.3549C7.56156 41.2229 4.79179 38.2695 2.88003 34.7724C0.968268 31.2753 -0.022671 27.3495 0.000393513 23.364C0.023458 19.3785 1.05977 15.4644 3.01188 11.9897C4.96398 8.51499 7.76775 5.59383 11.1595 3.50093C14.5513 1.40803 18.4197 0.212139 22.4008 0.0257206C26.382 -0.160698 30.3451 0.668479 33.9177 2.43528L28.8343 12.7138C27.005 11.8091 24.9757 11.3846 22.9372 11.48C20.8986 11.5755 18.9178 12.1878 17.1811 13.2595C15.4443 14.3312 14.0087 15.8269 13.0091 17.6062C12.0095 19.3854 11.4789 21.3896 11.4671 23.4304C11.4552 25.4711 11.9627 27.4813 12.9416 29.272C13.9205 31.0627 15.3387 32.575 17.063 33.6667C18.7872 34.7584 20.7608 35.3936 22.7981 35.5127C24.8354 35.6317 26.8695 35.2306 28.7092 34.3472L33.6732 44.6839Z" fill="url(#paint0_linear_1915_11601)"/>
<ellipse cx="23.2201" cy="23.22" rx="8.1131" ry="8.1131" fill="#11CABE"/>
<path d="M54.506 30.342C53.318 30.342 52.298 30.138 51.446 29.73C50.594 29.31 49.898 28.764 49.358 28.092C48.818 27.408 48.416 26.676 48.152 25.896C47.9 25.104 47.774 24.336 47.774 23.592V23.196C47.774 22.38 47.906 21.576 48.17 20.784C48.434 19.98 48.836 19.254 49.376 18.606C49.928 17.958 50.618 17.442 51.446 17.058C52.286 16.662 53.276 16.464 54.416 16.464C55.604 16.464 56.654 16.686 57.566 17.13C58.478 17.574 59.204 18.192 59.744 18.984C60.296 19.764 60.62 20.682 60.716 21.738H57.746C57.662 21.21 57.47 20.76 57.17 20.388C56.87 20.016 56.48 19.728 56 19.524C55.532 19.32 55.004 19.218 54.416 19.218C53.828 19.218 53.306 19.32 52.85 19.524C52.394 19.728 52.01 20.016 51.698 20.388C51.398 20.76 51.164 21.204 50.996 21.72C50.84 22.224 50.762 22.788 50.762 23.412C50.762 24.024 50.84 24.588 50.996 25.104C51.164 25.608 51.404 26.052 51.716 26.436C52.04 26.808 52.436 27.096 52.904 27.3C53.372 27.492 53.906 27.588 54.506 27.588C55.418 27.588 56.186 27.366 56.81 26.922C57.446 26.478 57.83 25.866 57.962 25.086H60.914C60.806 26.046 60.482 26.928 59.942 27.732C59.414 28.524 58.688 29.16 57.764 29.64C56.852 30.108 55.766 30.342 54.506 30.342ZM62.7105 30V20.136H64.9965V24.366H64.9425C64.9425 22.974 65.2365 21.9 65.8245 21.144C66.4245 20.388 67.2885 20.01 68.4165 20.01H68.7945V22.494H68.0745C67.2825 22.494 66.6705 22.71 66.2385 23.142C65.8065 23.562 65.5905 24.174 65.5905 24.978V30H62.7105ZM70.4599 33.906V31.458H72.5119C72.8239 31.458 73.0879 31.416 73.3039 31.332C73.5199 31.26 73.6939 31.134 73.8259 30.954C73.9579 30.774 74.0659 30.528 74.1499 30.216L76.5799 20.136H79.3159L76.5619 30.792C76.3699 31.56 76.0999 32.172 75.7519 32.628C75.4159 33.084 74.9599 33.408 74.3839 33.6C73.8199 33.804 73.0999 33.906 72.2239 33.906H70.4599ZM73.5559 29.784V27.534H75.6439V29.784H73.5559ZM72.3679 29.784L69.3439 20.136H72.2419L75.1039 29.784H72.3679ZM80.8335 33.6V20.136H83.1195V24.402L82.8135 24.384C82.8615 23.4 83.0655 22.572 83.4255 21.9C83.7855 21.216 84.2715 20.706 84.8835 20.37C85.4955 20.022 86.1855 19.848 86.9535 19.848C87.6375 19.848 88.2555 19.974 88.8075 20.226C89.3715 20.478 89.8515 20.832 90.2475 21.288C90.6555 21.732 90.9615 22.26 91.1655 22.872C91.3815 23.472 91.4895 24.132 91.4895 24.852V25.266C91.4895 25.974 91.3875 26.64 91.1835 27.264C90.9795 27.876 90.6795 28.41 90.2835 28.866C89.8995 29.322 89.4255 29.682 88.8615 29.946C88.3095 30.198 87.6735 30.324 86.9535 30.324C86.2095 30.324 85.5375 30.174 84.9375 29.874C84.3495 29.562 83.8755 29.094 83.5155 28.47C83.1555 27.834 82.9575 27.03 82.9215 26.058L83.7135 27.138V33.6H80.8335ZM86.1435 27.912C86.6355 27.912 87.0615 27.792 87.4215 27.552C87.7935 27.312 88.0815 26.976 88.2855 26.544C88.4895 26.112 88.5915 25.614 88.5915 25.05C88.5915 24.486 88.4895 23.994 88.2855 23.574C88.0815 23.154 87.7995 22.83 87.4395 22.602C87.0795 22.362 86.6475 22.242 86.1435 22.242C85.7115 22.242 85.3035 22.344 84.9195 22.548C84.5355 22.752 84.2235 23.046 83.9835 23.43C83.7555 23.802 83.6415 24.258 83.6415 24.798V25.464C83.6415 25.98 83.7615 26.424 84.0015 26.796C84.2535 27.156 84.5715 27.432 84.9555 27.624C85.3395 27.816 85.7355 27.912 86.1435 27.912ZM97.9718 30.126C96.9758 30.126 96.1718 30.006 95.5598 29.766C94.9478 29.514 94.4978 29.1 94.2098 28.524C93.9338 27.936 93.7958 27.144 93.7958 26.148V17.472H96.4778V26.256C96.4778 26.724 96.5978 27.084 96.8378 27.336C97.0898 27.576 97.4438 27.696 97.8998 27.696H99.3578V30.126H97.9718ZM92.3018 22.242V20.136H99.3578V22.242H92.3018ZM106.065 30.342C105.201 30.342 104.433 30.21 103.761 29.946C103.089 29.67 102.519 29.298 102.051 28.83C101.595 28.362 101.247 27.828 101.007 27.228C100.767 26.616 100.647 25.974 100.647 25.302V24.888C100.647 24.204 100.767 23.556 101.007 22.944C101.259 22.32 101.619 21.774 102.087 21.306C102.567 20.838 103.143 20.472 103.815 20.208C104.487 19.932 105.237 19.794 106.065 19.794C106.917 19.794 107.673 19.932 108.333 20.208C109.005 20.472 109.575 20.838 110.043 21.306C110.511 21.774 110.871 22.32 111.123 22.944C111.375 23.556 111.501 24.204 111.501 24.888V25.302C111.501 25.974 111.381 26.616 111.141 27.228C110.901 27.828 110.547 28.362 110.079 28.83C109.623 29.298 109.059 29.67 108.387 29.946C107.715 30.21 106.941 30.342 106.065 30.342ZM106.065 27.912C106.629 27.912 107.097 27.792 107.469 27.552C107.841 27.312 108.123 26.976 108.315 26.544C108.519 26.112 108.621 25.632 108.621 25.104C108.621 24.54 108.519 24.048 108.315 23.628C108.111 23.196 107.817 22.854 107.433 22.602C107.061 22.35 106.605 22.224 106.065 22.224C105.537 22.224 105.081 22.35 104.697 22.602C104.313 22.854 104.019 23.196 103.815 23.628C103.623 24.048 103.527 24.54 103.527 25.104C103.527 25.632 103.623 26.112 103.815 26.544C104.007 26.976 104.295 27.312 104.679 27.552C105.063 27.792 105.525 27.912 106.065 27.912ZM113.637 30V16.86H116.535V30H113.637ZM112.467 18.984V16.86H116.535V18.984H112.467ZM119.315 30V16.86H122.213V30H119.315ZM118.145 18.984V16.86H122.213V18.984H118.145ZM124.759 33.906V31.458H126.811C127.123 31.458 127.387 31.416 127.603 31.332C127.819 31.26 127.993 31.134 128.125 30.954C128.257 30.774 128.365 30.528 128.449 30.216L130.879 20.136H133.615L130.861 30.792C130.669 31.56 130.399 32.172 130.051 32.628C129.715 33.084 129.259 33.408 128.683 33.6C128.119 33.804 127.399 33.906 126.523 33.906H124.759ZM127.855 29.784V27.534H129.943V29.784H127.855ZM126.667 29.784L123.643 20.136H126.541L129.403 29.784H126.667Z" fill="white"/>
<path d="M134.682 30V26.778H137.85V30H134.682Z" fill="url(#paint1_linear_1915_11601)"/>
<defs>
<linearGradient id="paint0_linear_1915_11601" x1="48.0967" y1="12.3474" x2="-1.68006" y2="16.2148" gradientUnits="userSpaceOnUse">
<stop stop-color="#246CF9"/>
<stop offset="0.0001" stop-color="#1E68F6"/>
<stop offset="1" stop-color="#0047D0"/>
</linearGradient>
<linearGradient id="paint1_linear_1915_11601" x1="141.147" y1="18.0424" x2="51.7565" y2="45.8224" gradientUnits="userSpaceOnUse">
<stop stop-color="#246CF9"/>
<stop offset="0.0001" stop-color="#1E68F6"/>
<stop offset="1" stop-color="#0047D0"/>
</linearGradient>
</defs>
</svg>
